<?xml version="1.0" encoding="utf-8"?>
<!-- Generator: Adobe Illustrator 24.0.1, SVG Export Plug-In . SVG Version: 6.00 Build 0)  -->
<svg version="1.1" id="Layer_1" xmlns="http://www.w3.org/2000/svg" xmlns:xlink="http://www.w3.org/1999/xlink" x="0px" y="0px"
	 viewBox="0 0 500 500" style="enable-background:new 0 0 500 500;" xml:space="preserve">
<style type="text/css">
	.st0{fill:#FFFFFF;}
</style>
<g>
	<path d="M440.5624695,201.8047638c-3.8651733,5.484314-8.8793945,8.4614868-15.8261719,9.3494263
		c-8.3048096,0.9924316-17.8632202-1.3580322-22.3551025-5.5887451l-1.4102783-1.3057861l-3.8651123,3.656189
		c-10.4463501,9.9240112-27.6304932,18.333252-49.7244873,24.3921509
		c-7.4690552,2.0369873-28.4661865,5.9021606-39.9570923,7.364624c-8.5137329,1.0968628-27.526062,5.2231445-31.8612671,6.8945923
		c-10.0284424,3.9173584-15.6694946,10.0806732-15.6694946,17.2363739c0,1.6713867,0.0522461,1.7236328,2.2459717,1.7236328
		c3.8129272,0,5.5888062,2.2982178,4.0218506,5.2232056c-0.4178467,0.7834473-2.9772339,2.0369873-6.111084,2.9249268
		c-0.4178467,0.1044922,0.2611084,1.4102783,1.828064,3.4473267c3.65625,4.8574829,19.4824219,31.80896,23.869873,40.6883545
		l1.9847412,3.9173584l3.9696655,0.0522461c7.5213013,0.1044922,14.8859863,3.3950195,22.4595337,10.0806885
		c2.1937256,1.9325562,4.8052979,4.5963745,5.7977295,5.9021606c1.9325562,2.5593262,2.6115723,2.9771729,2.6115723,1.6713867
		c0-1.3579712,2.6115723-6.111084,5.1186523-9.2449951c4.1785278-5.3798218,10.394104-8.3570557,17.6020508-8.4614868
		c3.7606812-0.0522461,4.5963745,0.1567383,7.6780396,1.6713867c4.2307739,2.0892944,9.192749,7.1557617,13.5802002,13.8936157
		c4.1263428,6.4244995,11.7521362,21.6760864,14.4681396,29.0929565
		c8.8271484,24.2354736,13.8413696,51.1869507,12.5355835,67.7443237
		c-1.3057861,15.8261719-5.5365601,23.817627-15.2515869,28.5706787
		c-7.1035156,3.4995117-10.0285034,4.0740967-20.5270386,4.1263428l-8.8793335,0.0521851l-0.9401855,3.1339111
		c-2.2982178,7.8347168-7.4691162,12.222168-17.2886353,14.7293091c-2.9772339,0.7312012-5.9021606,0.8879395-16.1917725,0.8879395
		c-11.1253662,0-14.7815552-0.2611694-32.383606-2.1937256c-10.9163818-1.201355-27.0037079-2.8727417-35.7786102-3.7606812
		c-16.6618652-1.6192017-33.062561-3.65625-41.00177-5.0142212c-3.8651123-0.6790161-7.2079468-0.7835083-18.8033447-0.4700928
		c-26.9514771,0.62677-32.6969604,0.3133545-49.3588257-2.9249878c-15.7739258-3.081665-29.4586182-7.1035156-37.1888428-10.9686279
		c-3.7084351-1.8803101-7.3646851-5.2753906-7.1035156-6.5811768c0.2611694-1.4102783,2.6115723-1.1491089,7.312439,0.8879395
		l3.9696045,1.7236328l2.9771729-2.6115723c5.6932373-5.0664673,16.7141113-10.2896118,27.8394165-13.1101074
		c6.8054199-1.7185059,14.0407104-2.0313721,21.0432739-1.5625c2.8806763,0.1936646,5.789978,0.4779663,8.6110229,1.1120605
		c2.6477661,0.5951538,5.2479858,1.4022217,7.8479614,2.1740723c1.0446167,0.3133545,1.0446167,0.1566772,1.0968628-8.2003784
		c0.0522461-8.8793335,1.1491089-17.131897,3.1339111-23.6608887l0.9923706-3.1338501l-2.5070801-3.6040039
		c-7.4169312-10.7074585-5.6932373-23.1907959,3.8128662-27.9439087c1.7758789-0.8878784,4.0218506-1.6191406,5.0142822-1.6191406
		c0.9401245,0,1.7236328-0.1044922,1.7236328-0.2611694c0-0.1044922-0.3656616-1.5669556-0.7835083-3.2383423
		c-1.3057861-4.8575439-1.5669556-15.6694946-0.5745239-21.8328247c1.7236328-10.3417969,5.484314-21.9372559,11.7520752-36.1442261
		c4.8575439-10.9163818,8.0436401-20.788147,9.7150879-29.6674805c0.7312622-3.9174194,1.3057861-7.4169312,1.3057861-7.8347778
		c0-0.3656006-0.9924316-1.0446167-2.1937256-1.4102173c-4.4918823-1.5147705-4.3352051-5.6410522,0.1566772-5.6410522h1.9848022
		l-0.7834473-2.7682495c-1.0968628-3.7606812-3.9696045-10.2895966-6.0588989-13.8413544
		c-3.7084351-6.3200073-11.3342285-13.0578613-17.4975586-15.5127563
		c-3.7606812-1.5147095-15.0426636-4.9619751-16.2440186-4.9619751c-0.5222778,0-1.6192017,1.2012939-2.7160034,2.9771729
		c-2.5593872,4.3874512-10.9686279,12.6400146-15.4083252,15.1471558
		c-4.0740356,2.3504028-9.0360718,4.3874512-13.6324463,5.6932373c-4.1785278,1.1490936-14.4158936,1.5669403-19.4301147,0.7312622
		c-12.0654907-1.9326172-25.9591064-9.767334-36.8232422-20.6837158
		c-6.9990845-7.1035156-10.8119507-12.3266602-14.7293091-20.3180542
		c-5.3276367-10.8641968-7.5213623-18.5422363-8.6704102-30.2943115
		c-0.7312622-7.5213623-0.3134155-21.8850708,0.7834473-29.0930176
		c2.1414795-13.3190308,6.4244995-29.5108109,10.5507202-39.8526688
		c6.2678223-15.6694336,17.9677124-36.7709961,27.3171387-49.0976563
		c8.2526245-10.9686279,21.5716553-24.8622437,29.4586182-30.7644043
		c7.5213623-5.5888062,19.5346069-11.9088135,28.3095093-14.8859863c8.4092407-2.8727417,20.788147-5.3276358,30.0331421-5.9544058
		c6.9467773-0.5222778,20.3703003-0.3133545,25.697937,0.4178467c9.2449951,1.201354,14.9381714,2.9772329,23.6608887,7.2601919
		c9.6628418,4.7531128,18.4376831,10.6030273,26.5336151,17.5498047l6.111084,5.2753906l1.3579712-1.6191406
		c2.8727417-3.3950806,8.2003784-4.6486206,11.8565674-2.8205566c2.2982178,1.1491089,4.5441895,3.3428345,4.5441895,4.4396973
		c0,1.3057861-1.5147095,1.6192017-6.1633301,1.2536011c-3.656189-0.3134155-4.2307739-0.2089844-6.0588379,0.9401245
		l-1.9848633,1.2536011l5.9022217,5.2231445c7.6257935,6.7901001,10.1851807,8.7226563,16.9752808,13.2145386
		c8.9837646,5.9021606,19.4823608,10.6030273,28.6228638,12.7967529c2.9249268,0.7312012,10.3418579,1.8803101,16.505127,2.6115723
		c19.7435303,2.2981567,27.9439087,4.3352051,38.546936,9.5061646c6.9990234,3.3950195,12.6400146,7.4691162,19.3256226,13.9458008
		c15.7217407,15.1471558,22.4073486,29.3019485,23.869873,50.2990189l0.3656006,5.3798218h1.6714478
		c6.3200073,0.0522461,14.102478,3.3950806,18.8033447,8.1481323
		C446.6213074,178.6139069,447.7704163,191.515152,440.5624695,201.8047638z"/>
	<path d="M437.6897278,169.7345734c-4.7008667-4.7530518-12.4833374-8.0958862-18.8033447-8.1481323h-1.6714478
		l-0.3656006-5.3798218c-1.4625244-20.9970703-8.1481323-35.1518631-23.869873-50.2990189
		c-6.6856079-6.4766846-12.3265991-10.5507813-19.3256226-13.9458008
		c-10.6030273-5.1709595-18.8034058-7.2080078-38.546936-9.5061646c-6.163269-0.7312622-13.5802002-1.8803711-16.505127-2.6115723
		c-9.1405029-2.1937256-19.6390991-6.8945923-28.6228638-12.7967529
		c-6.7901001-4.4918823-9.3494873-6.4244385-16.9752808-13.2145386l-5.9022217-5.2231445l1.9848633-1.2536011
		c1.828064-1.1491089,2.4026489-1.25354,6.0588379-0.9401245c4.6486206,0.3656006,6.1633301,0.0521851,6.1633301-1.2536011
		c0-1.0968628-2.2459717-3.2905884-4.5441895-4.4396973c-3.656189-1.828064-8.9838257-0.5745239-11.8565674,2.8205566
		l-1.3579712,1.6191406l-6.111084-5.2753906c-8.095932-6.9467773-16.8707733-12.7966919-26.5336151-17.5498047
		c-8.7227173-4.282959-14.4158936-6.0588379-23.6608887-7.2601919c-5.3276367-0.7312012-18.7511597-0.9401245-25.697937-0.4178467
		c-9.2449951,0.62677-21.6239014,3.0816641-30.0331421,5.9544058c-8.7749023,2.9771729-20.788147,9.2971802-28.3095093,14.8859863
		c-7.8869629,5.9021606-21.2059937,19.7957764-29.4586182,30.7644043
		c-9.3494263,12.3266602-21.0493164,33.4282227-27.3171387,49.0976563
		c-4.1262207,10.3418579-8.4092407,26.533638-10.5507202,39.8526688
		c-1.0968628,7.2079468-1.5147095,21.5716553-0.7834473,29.0930176c1.1490479,11.7520752,3.3427734,19.4301147,8.6704102,30.2943115
		c3.9173584,7.991394,7.7302246,13.2145386,14.7293091,20.3180542
		c10.8641357,10.9163818,24.7577515,18.7510986,36.8232422,20.6837158
		c5.0142212,0.8356781,15.2515869,0.4178314,19.4301147-0.7312622c4.5963745-1.3057861,9.5584106-3.3428345,13.6324463-5.6932373
		c4.4396973-2.5071411,12.848938-10.7597046,15.4083252-15.1471558c1.0968018-1.7758789,2.1937256-2.9771729,2.7160034-2.9771729
		c1.201355,0,12.4833374,3.4472656,16.2440186,4.9619751c6.1633301,2.454895,13.7891235,9.192749,17.4975586,15.5127563
		c2.0892944,3.5517578,4.9620361,10.0806732,6.0588989,13.8413544l0.7834473,2.7682495h-1.9848022
		c-4.4918823,0-4.6485596,4.1262817-0.1566772,5.6410522c1.2012939,0.3656006,2.1937256,1.0446167,2.1937256,1.4102173
		c0,0.4178467-0.5745239,3.9173584-1.3057861,7.8347778c-1.6714478,8.8793335-4.8575439,18.7510986-9.7150879,29.6674805
		c-6.2677612,14.2069702-10.0284424,25.8024292-11.7520752,36.1442261
		c-0.9924316,6.1633301-0.7312622,16.9752808,0.5745239,21.8328247c0.4178467,1.6713867,0.7835083,3.1338501,0.7835083,3.2383423
		c0,0.1566772-0.7835083,0.2611694-1.7236328,0.2611694c-0.9924316,0-3.2384033,0.7312622-5.0142822,1.6191406
		c-9.5061035,4.7531128-11.2297974,17.2364502-3.8128662,27.9439087l2.5070801,3.6040039l-0.9923706,3.1338501
		c-1.9848022,6.5289917-3.081665,14.7815552-3.1339111,23.6608887c-0.0522461,8.3570557-0.0522461,8.5137329-1.0968628,8.2003784
		c-2.5999756-0.7718506-5.2001953-1.5789185-7.8479614-2.1740723c-2.8210449-0.6340942-5.7303467-0.918396-8.6110229-1.1120605
		c-7.0025635-0.4688721-14.237854-0.1560059-21.0432739,1.5625c-11.1253052,2.8204956-22.1461792,8.0436401-27.8394165,13.1101074
		l-2.9771729,2.6115723l-3.9696045-1.7236328c-4.7008667-2.0370483-7.0512695-2.2982178-7.312439-0.8879395
		c-0.2611694,1.3057861,3.3950806,4.7008667,7.1035156,6.5811768c7.7302246,3.8651123,21.414917,7.8869629,37.1888428,10.9686279
		c16.6618652,3.2383423,22.4073486,3.5517578,49.3588257,2.9249878c11.5953979-0.3134155,14.9382324-0.2089233,18.8033447,0.4700928
		c7.939209,1.3579712,24.3399048,3.3950195,41.00177,5.0142212c8.7749023,0.8879395,24.8622284,2.5593262,35.7786102,3.7606812
		c17.6020508,1.9325562,21.2582397,2.1937256,32.383606,2.1937256c10.2896118,0,13.2145386-0.1567383,16.1917725-0.8879395
		c9.819519-2.5071411,14.9904175-6.8945923,17.2886353-14.7293091l0.9401855-3.1339111l8.8793335-0.0521851
		c10.4985352-0.0522461,13.4235229-0.6268311,20.5270386-4.1263428
		c9.7150269-4.7530518,13.9458008-12.7445068,15.2515869-28.5706787
		c1.3057861-16.557373-3.7084351-43.5088501-12.5355835-67.7443237
		c-2.7160034-7.4168701-10.3417969-22.668457-14.4681396-29.0929565
		c-4.3874512-6.737854-9.3494263-11.8043213-13.5802002-13.8936157c-3.081665-1.5146484-3.9173584-1.7236328-7.6780396-1.6713867
		c-7.2079468,0.1044312-13.4235229,3.081665-17.6020508,8.4614868c-2.5070801,3.1339111-5.1186523,7.8870239-5.1186523,9.2449951
		c0,1.3057861-0.6790161,0.8879395-2.6115723-1.6713867c-0.9924316-1.3057861-3.6040039-3.9696045-5.7977295-5.9021606
		c-7.5735474-6.6856689-14.9382324-9.9761963-22.4595337-10.0806885l-3.9696655-0.0522461l-1.9847412-3.9173584
		c-4.3874512-8.8793945-20.213623-35.8308716-23.869873-40.6883545c-1.5669556-2.0370483-2.2459106-3.3428345-1.828064-3.4473267
		c3.1338501-0.8879395,5.6932373-2.1414795,6.111084-2.9249268c1.5669556-2.9249878-0.2089233-5.2232056-4.0218506-5.2232056
		c-2.1937256,0-2.2459717-0.0522461-2.2459717-1.7236328c0-7.1557007,5.6410522-13.3190155,15.6694946-17.2363739
		c4.3352051-1.6714478,23.3475342-5.7977295,31.8612671-6.8945923c11.4909058-1.4624634,32.4880371-5.3276367,39.9570923-7.364624
		c22.0939941-6.0588989,39.2781372-14.4681396,49.7244873-24.3921509l3.8651123-3.656189l1.4102783,1.3057861
		c4.4918823,4.2307129,14.050293,6.5811768,22.3551025,5.5887451c6.9467773-0.8879395,11.9609985-3.8651123,15.8261719-9.3494263
		C447.7704163,191.515152,446.6213074,178.6139069,437.6897278,169.7345734z M161.2280731,448.9122314
		c-3.1860962,3.0294189-3.9173584,7.1035156-2.3504028,12.5355835c0.4700928,1.5669556,1.25354,3.6039429,1.828125,4.5963745
		c0.5745239,0.9401855,0.9923706,1.828125,0.8879395,1.8803101c-0.3134155,0.3656616-13.0056763-1.25354-20.5270386-2.5593262
		c-7.7302246-1.3580322-29.0407104-6.3200073-30.5032349-7.1035156c-1.0968628-0.5745239,10.6552734-6.3722534,17.6020508-8.7226563
		c9.5583496-3.1860962,13.7891235-3.8128662,23.869812-3.6039429c4.90979,0.1044312,9.4016724,0.3656006,10.0806885,0.5745239
		C163.2129364,446.8751831,163.2129364,446.9796753,161.2280731,448.9122314z M326.7499084,345.6504517
		c0.2089233-0.2611694,1.1490479-2.2459717,2.0369873-4.3874512c1.7236938-4.1785278,5.1187134-8.565979,8.0436401-10.394104
		c1.7759399-1.0968628,6.5289917-2.5593262,8.4615479-2.6115723c0.574585-0.0521851,1.828125,0.1567383,2.8204956,0.4700928
		c2.7683105,0.7835083,5.5365601,2.9249878,8.6182251,6.737915c2.9772339,3.708374,7.312439,10.6552124,7.0512695,11.3864746
		c-0.1044922,0.2088623-1.2536011,0.7312012-2.6638184,1.0446167c-3.1339111,0.8356934-7.0512695,2.7682495-8.8793945,4.4918823
		c-2.8727417,2.6638184-1.5147095,3.081665,4.6486206,1.4102783c2.0892944-0.5223389,5.2231445-1.1491089,6.8945923-1.3580322
		l3.1339111-0.3134155l2.5593262,5.1709595c2.5071411,4.9619751,5.3275757,11.4386597,5.3275757,12.1699219
		c0,0.2089844-1.5146484,0.5223389-3.2905273,0.6268311c-3.6040039,0.3133545-10.0806885,3.0294189-11.020874,4.7008057
		c-0.9401855,1.6192017,0.2089233,1.9848022,3.6039429,1.201355c1.7236328-0.4178467,5.2754517-0.7835083,7.939209-0.7835083
		h4.8052979l1.3057861,4.28302c5.484314,18.1765747,7.9914551,31.2866821,8.5137329,44.8146362
		c0.6790161,17.3931274-2.5070801,27.526062-9.9761963,31.6523438c-5.5365601,3.0294189-8.9838257,3.8651123-17.7064819,4.1785278
		c-4.3875122,0.1566772-8.2003784,0.1044312-8.5137329-0.1567383c-0.3656616-0.3133545-0.3656616-2.454834,0.1044312-7.2079468
		c2.3504639-24.1831665-0.7834473-48.2619629-9.6628418-74.5344238
		c-4.5441284-13.5279541-7.939209-21.3104248-12.5355835-28.8317871
		C327.2200012,347.5830078,326.488739,345.859375,326.7499084,345.6504517z M286.3226624,329.354187
		c1.0968628-0.3134155,2.5071411-0.6789551,3.081665-0.7834473c1.5147095-0.4178467,5.3798218,0.1044922,8.3570557,1.0446167
		c4.1262817,1.3580322,7.5735474,3.4472656,11.8565674,7.2079468c2.5070801,2.2459717,8.2525635,8.7227173,8.2525635,9.3494873
		c0,0.1566772-1.5147095,0.3133545-3.3950195,0.3133545c-8.3570557,0-20.6314697,4.28302-20.6314697,7.1557617
		c0,0.9401245,2.1937256,0.8356934,9.5583496-0.3656616c8.565979-1.4102173,16.4529419-1.828064,18.0721436-0.9401245
		c0.6790161,0.3656006,2.0369873,2.0892334,2.9771729,3.8128662c1.8803711,3.3428345,6.4766846,13.5280151,6.4766846,14.3637085
		c0,0.2611084-0.6789551,0.2611084-1.6713867-0.0522461c-2.3504028-0.62677-8.6704102-0.574585-12.0132446,0.1044312
		c-5.2753906,1.1491089-10.2896118,3.9696045-8.9838257,5.1187134c0.2611694,0.2089233,2.7160034,0.2089233,5.484314-0.1044312
		c3.0294189-0.2611694,7.8347168-0.3134155,12.222168-0.0522461l7.2079468,0.4700928l2.0370483,5.7454224
		c1.1491089,3.1339111,2.9772339,9.3494873,4.1262817,13.7369385c4.2307739,16.505188,5.484314,28.9884644,5.0142212,49.7244263
		c-0.3133545,13.8413696-0.8879395,19.1167603-2.7160034,24.496582c-1.5147095,4.5441284-5.9544067,7.4691162-13.6324463,8.8793945
		c-3.8651733,0.7312012-20.213623,0.7834473-27.1604004,0.0522461c-2.8204956-0.3134155-11.647644-1.2536011-19.5346069-2.0892944
		s-20.4747925-2.1414795-27.9438934-2.8727417c-7.4691162-0.7312622-21.6760864-2.2459106-31.6000977-3.3950195
		c-9.9239502-1.1491089-19.586792-2.1937256-21.5194092-2.3504639l-3.4472656-0.3133545v-4.0218506
		c0-6.9467773-2.2981567-13.6324463-5.484314-15.9828491c-0.7834473-0.5745239-3.4472656-1.5669556-6.0065918-2.1937256
		l-4.5441895-1.1491089l-0.4178467-4.3352051c-0.5745239-6.0065918-0.1044312-14.4158936,1.25354-22.1984253
		c0.9924316-5.5365601,1.3057861-6.4766846,1.9848633-6.1633301c0.4700317,0.2089233,2.0369873,0.4700928,3.4994507,0.574585
		l2.7160645,0.2611694v2.2981567c0.1566772,6.8945923,6.9990234,13.5802002,14.4681396,14.2069702
		c2.8204956,0.2089233,3.7084351,0.0522461,6.3200073-1.25354c2.7683105-1.3057861,3.5517578-1.4625244,7.7825317-1.3057861
		c5.2753906,0.1566772,8.5137329-0.7312622,14.1547241-3.8129272l3.2383423-1.828125l6.8945923,1.3058472
		c8.4615479,1.5668945,13.9980316,2.9249878,19.9001923,4.9619751c5.1709595,1.7236328,6.5289917,1.828125,8.2526245,0.6790161
		c1.4102783-0.9923706,1.4624634,0.9923706-0.7312622-18.2288208c-0.7312012-6.3200073-1.6714478-14.4158936-2.1414795-18.0198975
		c-1.0446167-7.6780396-1.1491089-21.8327637-0.2611694-28.2050171c1.3580322-9.767334,4.4396973-18.4899902,8.8271484-24.8621826
		C279.4281311,334.0028076,283.8677673,329.9810181,286.3226624,329.354187z M281.9874573,321.7806396
		c0.5745239,0.6790161,0.9923706,1.25354,0.8356934,1.3580322c-0.1044922,0.1044312-1.4102783,0.9401245-2.9249878,1.8803101
		c-3.1339111,1.9325562-5.9021606,4.8052979-8.8793335,9.192749c-6.2678223,9.2449951-9.5061646,19.6390381-10.6030273,34.0027466
		c-0.6790161,8.4093018-0.4178467,13.475769,1.3580322,28.9362793c1.828064,15.1994019,2.6638184,23.243042,2.6115723,23.3475342
		c-0.0522461,0.0521851-1.828125-0.4178467-3.9696045-1.0969238c-3.9696045-1.25354-15.6172333-3.4472656-18.3332367-3.4472656
		c-0.8357544,0-1.5147095-0.1044312-1.5147095-0.2089233c0-0.1566772,0.7312012-1.3579712,1.6191406-2.6638184
		c2.8204956-4.2307129,3.7084351-7.2601929,4.0218506-13.6846313c0.3134155-7.8347778-0.3134155-11.8043213-4.90979-29.8242188
		c-4.7530518-18.9078369-5.2753906-21.9372559-6.0588379-33.9505005c-0.1940918-2.8136597-0.1841431-5.8792725-0.8826904-8.6307373
		c-0.2679443-1.0553589-0.6871338-0.7138672-1.2900391,0.1520386c-0.9494629,1.3635864-1.2325439,3.0601196-1.5603638,4.6534424
		c-0.9688721,4.7088623-1.2255249,9.6390381-0.8878174,14.4329224c0.2502441,3.5524292,0.6135864,7.1516724,1.2592163,10.6543579
		c1.2800293,6.944519,3.0524292,13.8088379,4.6674805,20.6798706c0.6437988,2.7391968,1.0245361,5.6553955,1.8025513,8.3295898
		c1.8790283,6.4590454,1.8781128,13.4519653,0.0109863,19.9135742c-1.4623413,5.06073-6.3336792,9.5334473-11.0063477,11.7140503
		c-2.3504028,1.0968628-5.484314,2.1936646-6.9989624,2.4025879l-2.7160645,0.3134155l0.3134155-2.9249878
		c0.4178467-3.8129272-0.6790161-8.8793945-2.3504028-10.8641357c-1.201355-1.4102783-1.3580933-1.4625244-2.1415405-0.6790161
		c-0.62677,0.62677-0.8879395,2.2982178-1.1490479,6.4244385c-0.3134155,6.2678223-1.201355,8.7749023-3.5518188,10.1851807
		c-1.7236328,0.9924316-6.0065918,1.2012939-8.2525635,0.3134155c-3.1860962-1.201355-5.7454834-4.9620361-6.2155151-9.2449951
		c-0.3134155-2.4026489-0.2611694-2.5071411,2.0369873-4.3874512c3.3950806-2.8204956,5.7454834-8.2526245,3.4995117-8.2526245
		c-0.2611084,0-1.9325562,1.3057861-3.656189,2.8727417c-3.6040039,3.3428345-4.8575439,3.9173584-8.2525635,3.9173584
		c-2.9772339,0-5.0142822-1.1490479-7.5213623-4.2307129c-2.5071411-3.081665-2.9772339-4.1262817-3.8129272-8.0958862
		c-1.3579712-6.4767456,0.5223389-11.7521362,5.0664673-14.3114624c1.828125-1.0446167,2.8727417-1.2012939,6.2678223-1.1491089
		c3.8651123,0.1044922,4.0740356,0,4.3873901-1.1491089c0.1567383-0.626709-0.1044312-2.6115723-0.5222778-4.3352051
		c-2.0370483-7.8869629-1.9848022-20.5792236,0.1567383-29.6152954c1.7758179-7.4691162,6.0065918-19.3256836,10.394043-29.3018799
		c6.2677612-14.1547241,9.9240112-26.5336304,10.8641357-36.718811l0.3656616-3.8129272l1.6192017,0.3656616
		c2.1414795,0.5222778,29.3018799,0.3134155,34.263855-0.2611694c2.1414795-0.2089233,4.1785278-0.4700928,4.5441284-0.5223389
		c0.3134155,0,0.7835083,0.4700928,0.9401855,1.0969238C256.2895203,280.2042847,278.3312073,317.8110352,281.9874573,321.7806396z
		 M409.0145569,172.8162384c-2.7160034,15.3560791-10.8641357,27.3693237-24.9666748,36.6665649
		c-10.2896118,6.7901001-27.1081543,13.6846313-41.8374634,17.131958c-5.3275757,1.25354-26.1157837,5.0142212-33.1669922,6.0065918
		c-8.8793945,1.25354-24.1832886,0.4700928-32.5925293-1.6192017
		c-19.6912842-4.9619751-32.6446991-14.4158936-46.4860687-33.7937622l-3.4473267-4.8575439l1.6192017-2.2981567
		c2.6638184-3.7606812,0.8879395-5.2232056-3.081665-2.5071411c-2.4026489,1.6191406-4.282959,3.8129272-5.5887451,6.2677612
		c-1.6713867,3.2905884-0.7312622,4.8052979,1.9325562,3.02948c1.1491089-0.7312622,1.2012939-0.6268311,3.1339111,3.0294189
		c6.2155151,12.0132446,20.7359009,25.6456299,33.5326385,31.4433594
		c5.2231445,2.4026489,13.8936157,5.2753906,18.2288208,6.0588989l3.4995117,0.6789551l-4.0740967,1.3580322
		c-6.737854,2.2459717-11.5431519,5.0664673-15.6171875,9.140564c-4.2830048,4.2307129-5.8499603,7.6257782-6.3200531,13.63237
		l-0.3133545,3.7606812l-7.8870239,0.3656616c-4.3352051,0.1566772-10.7074585,0.5745239-14.1547241,0.8356934
		c-3.4472656,0.2089233-8.565979,0.4700928-11.3342285,0.4700928H214.97435v-1.7758789
		c0-2.5593262-1.8803101-8.2526245-4.282959-13.1100922c-7.2079468-14.4159546-18.7510986-21.7805786-37.6067505-23.869873
		c-3.1339111-0.3656006-5.6409912-0.7834473-5.6409912-0.9923706s0.7312622-2.3504639,1.6191406-4.7530518
		c3.4473267-9.3494873,5.1709595-19.8480225,5.1709595-31.4434204c0-15.6694946-4.7008667-42.203125-9.7150269-54.8431396
		c-3.1861572-8.0436401-3.65625-7.6780396-2.8205566,2.6638184c0.3134155,4.2307739,1.5147705,13.9458008,2.6115723,21.5716553
		c2.6638184,18.5944214,3.3428345,26.4291382,2.9772339,35.2562866c-0.3656616,8.4092407-1.3057861,14.1025391-3.5517578,21.2582397
		c-5.3276367,16.8707886-15.4083252,26.7425537-31.3389282,30.8166504
		c-3.5517578,0.8878784-5.4320679,1.0446167-10.8641968,0.8356934c-5.6932373-0.2089844-7.2601318-0.4701538-11.5431519-1.9326172
		c-12.5355835-4.282959-25.2278442-13.8413696-34.4205933-26.0112915
		c-5.3798828-7.1034546-11.020874-20.6314697-12.9534302-30.9733276c-0.7312012-3.9173584-0.8879395-7.6257935-0.8879395-17.4975586
		c0-11.1775513,0.1567383-13.3712769,1.4102783-20.2658081c1.5147095-8.56604,4.8574829-22.1984253,6.7901001-27.7872391
		c3.1338501-9.0360107,12.1176758-27.5782471,18.7510986-38.6513672
		c11.2297974-18.5944214,26.2202759-35.9353027,38.546875-44.5012817
		c18.960083-13.1623535,32.9058838-18.333252,54.5820313-20.161377c6.2677612-0.5222778,22.8773804-0.3133545,27.526001,0.4178467
		c7.939209,1.201355,15.1471558,4.0740967,26.0112915,10.4463501c8.9315796,5.1708984,13.7369385,9.0360718,29.0407562,22.9296265
		c13.2667847,12.1177368,22.3028564,18.5944214,33.637146,24.1832275
		c10.8118896,5.3798218,19.0122681,7.7302856,32.1746216,9.2972412
		c26.5336304,3.1338501,34.1594238,5.2231445,46.0159912,12.3265991
		c9.1405029,5.5365601,15.878418,12.0132446,23.3475342,22.3551025
		C408.5967102,135.9929962,412.148468,154.6396637,409.0145569,172.8162384z M436.8017883,195.0668488
		c-1.4624634,3.0817261-4.8052979,6.5812378-7.6257935,7.9914551c-0.8879395,0.4700928-1.6192017,0.7312622-1.6192017,0.62677
		c0-0.1566772,1.1491089-1.7758179,2.5593262-3.656189c3.2905884-4.3352051,4.4396973-7.7302856,4.1262817-12.2744141
		c-0.1984253-2.6697388-1.137146-5.2577515-2.4217529-7.5895996c-1.3648071-2.4772949-3.157959-4.7332153-5.2659302-6.6192627
		c-1.940979-1.7366333-4.260498-3.2976074-6.7900391-4.0176392c-0.7919312-0.2254028-1.5323486-0.5249023-2.2190552-0.9880981
		c-0.0875244-0.059082-0.1757813-0.1221924-0.2340698-0.2102051c-0.0582275-0.0880737-0.0808105-0.2073364-0.0297852-0.2997437
		c0.0601196-0.1087036,0.1960449-0.1462402,0.3184204-0.1674805c0.8067017-0.1398315,1.5664063,0.0306396,2.3457642,0.2171021
		c0.8317871,0.1989746,1.6598511,0.4138184,2.4921265,0.6104126c6.6334229,1.5669556,11.8565674,5.5887451,14.4158936,11.0730591
		c1.201355,2.5593872,1.4102783,5.3276367,1.4102783,7.6780396
		C438.2642517,189.7915192,438.0553284,192.5075226,436.8017883,195.0668488z M155.6915741,170.8314362
		c1.4102173,9.140564,0.8879395,22.6685181-1.1491089,30.9733276
		c-3.3428345,13.8935547-15.4083252,26.3769531-27.9439087,29.0407104c-5.1708984,1.0969238-12.9011841,1.0969238-17.131958,0
		c-1.8803101-0.5222778-5.5887451-1.9848022-8.3048096-3.2905884c-4.1262817-1.9325562-5.6409912-3.081665-9.4539185-6.8422852
		c-5.0142212-5.0142822-7.7824707-9.2972412-10.7074585-16.505188c-3.4472656-8.6182251-4.4918823-14.5203857-4.4918823-25.6456909
		c0-18.6466675,7.4691162-45.7548828,16.0872803-58.2382278c2.2459717-3.2383423,4.90979-5.2753906,6.4244995-4.8574829
		c0.5745239,0.1566772,2.5070801,1.9848022,4.28302,4.0740356c1.828064,2.1414795,3.4472656,3.8651123,3.6039429,3.8651123
		c0.2089233,0.0522461,0.1567383-0.9401245-0.1044312-2.1936646c-0.5223389-2.8205566-0.1567383-12.0655518,0.626709-15.1994019
		c0.3134155-1.3580322,1.0969238-2.7683105,1.6714478-3.1861572c1.5669556-1.0968628,2.5070801-0.9923706,5.9021606,0.8356934
		c6.4767456,3.3950806,14.5203857,10.8119507,20.4225464,18.8034058
		C144.5662079,134.8961334,153.4977875,156.1021271,155.6915741,170.8314362z M272.8468933,114.7347488
		c0.3134155,6.5289307-0.7312012,16.139534-1.9325562,18.9078445c-0.8879395,2.0369873-1.25354,2.3504028-2.6115723,2.3504028
		c-1.9325562,0-3.0294189-1.0968628-3.4472656-3.3428345c-0.2089233-0.9401855-0.2611694-6.320015-0.1566772-12.0132523
		l0.1275024-8.4158936c0.0185547-1.2246094,0.5617065-2.3824463,1.4916382-3.1795044
		c1.828125-1.5669556,3.081665-1.5669556,4.90979,0C272.5857239,110.1905594,272.6902161,110.6607132,272.8468933,114.7347488z"/>
	<path class="st0" d="M161.2280731,448.9122314c-3.1860962,3.0294189-3.9173584,7.1035156-2.3504028,12.5355835
		c0.4700928,1.5669556,1.25354,3.6039429,1.828125,4.5963745c0.5745239,0.9401855,0.9923706,1.828125,0.8879395,1.8803101
		c-0.3134155,0.3656616-13.0056763-1.25354-20.5270386-2.5593262c-7.7302246-1.3580322-29.0407104-6.3200073-30.5032349-7.1035156
		c-1.0968628-0.5745239,10.6552734-6.3722534,17.6020508-8.7226563c9.5583496-3.1860962,13.7891235-3.8128662,23.869812-3.6039429
		c4.90979,0.1044312,9.4016724,0.3656006,10.0806885,0.5745239
		C163.2129364,446.8751831,163.2129364,446.9796753,161.2280731,448.9122314z M378.1457214,379.496521l-1.3057861-4.28302
		h-4.8052979c-2.6637573,0-6.2155762,0.3656616-7.939209,0.7835083c-3.3950195,0.7834473-4.5441284,0.4178467-3.6039429-1.201355
		c0.9401855-1.6713867,7.4168701-4.3874512,11.020874-4.7008057c1.7758789-0.1044922,3.2905273-0.4178467,3.2905273-0.6268311
		c0-0.7312622-2.8204346-7.2079468-5.3275757-12.1699219l-2.5593262-5.1709595l-3.1339111,0.3134155
		c-1.6714478,0.2089233-4.8052979,0.8356934-6.8945923,1.3580322c-6.1633301,1.6713867-7.5213623,1.25354-4.6486206-1.4102783
		c1.828125-1.7236328,5.7454834-3.656189,8.8793945-4.4918823c1.4102173-0.3134155,2.5593262-0.8357544,2.6638184-1.0446167
		c0.2611694-0.7312622-4.0740356-7.6781006-7.0512695-11.3864746c-3.081665-3.8129272-5.8499146-5.9544067-8.6182251-6.737915
		c-0.9923706-0.3133545-2.2459106-0.5222778-2.8204956-0.4700928c-1.9325562,0.0522461-6.6856079,1.5147095-8.4615479,2.6115723
		c-2.9249268,1.828125-6.3199463,6.2155762-8.0436401,10.394104c-0.8879395,2.1414795-1.828064,4.1262817-2.0369873,4.3874512
		c-0.2611694,0.2089233,0.4700928,1.9325562,1.6191406,3.7606812c4.5963745,7.5213623,7.9914551,15.303833,12.5355835,28.8317871
		c8.8793945,26.2724609,12.0133057,50.3512573,9.6628418,74.5344238c-0.4700928,4.7531128-0.4700928,6.8945923-0.1044312,7.2079468
		c0.3133545,0.2611694,4.1262207,0.3134155,8.5137329,0.1567383c8.7226563-0.3134155,12.1699219-1.1491089,17.7064819-4.1785278
		c7.4691162-4.1262817,10.6552124-14.2592163,9.9761963-31.6523438
		C386.1371765,410.7832031,383.6300354,397.6730957,378.1457214,379.496521z M335.2113953,381.7424316l-2.0370483-5.7454224
		l-7.2079468-0.4700928c-4.3874512-0.2611694-9.192749-0.2089233-12.222168,0.0522461
		c-2.7683105,0.3133545-5.2231445,0.3133545-5.484314,0.1044312c-1.3057861-1.1491089,3.7084351-3.9696045,8.9838257-5.1187134
		c3.3428345-0.6790161,9.6628418-0.7312012,12.0132446-0.1044312c0.9924316,0.3133545,1.6713867,0.3133545,1.6713867,0.0522461
		c0-0.8356934-4.5963135-11.020874-6.4766846-14.3637085c-0.9401855-1.7236328-2.2981567-3.4472656-2.9771729-3.8128662
		c-1.6192017-0.8879395-9.5061646-0.4700928-18.0721436,0.9401245c-7.364624,1.201355-9.5583496,1.3057861-9.5583496,0.3656616
		c0-2.8727417,12.2744141-7.1557617,20.6314697-7.1557617c1.8803101,0,3.3950195-0.1566772,3.3950195-0.3133545
		c0-0.62677-5.7454834-7.1035156-8.2525635-9.3494873c-4.28302-3.7606812-7.7302856-5.8499146-11.8565674-7.2079468
		c-2.9772339-0.9401245-6.8423462-1.4624634-8.3570557-1.0446167c-0.5745239,0.1044922-1.9848022,0.4700317-3.081665,0.7834473
		c-2.454895,0.6268311-6.8945313,4.6486206-9.819519,8.9838867c-4.3874512,6.3721924-7.4691162,15.0948486-8.8271484,24.8621826
		c-0.8879395,6.3722534-0.7834473,20.5269775,0.2611694,28.2050171c0.4700317,3.6040039,1.4102783,11.6998901,2.1414795,18.0198975
		c2.1937256,19.2211914,2.1415405,17.2364502,0.7312622,18.2288208c-1.7236328,1.1491089-3.081665,1.0446167-8.2526245-0.6790161
		c-5.9021606-2.0369873-11.4386444-3.3950806-19.9001923-4.9619751l-6.8945923-1.3058472l-3.2383423,1.828125
		c-5.6409912,3.081665-8.8793335,3.9696045-14.1547241,3.8129272c-4.2307739-0.1567383-5.0142212,0-7.7825317,1.3057861
		c-2.6115723,1.3057861-3.4995117,1.4624634-6.3200073,1.25354c-7.4691162-0.62677-14.3114624-7.3123779-14.4681396-14.2069702
		v-2.2981567l-2.7160645-0.2611694c-1.4624634-0.1044922-3.0294189-0.3656616-3.4994507-0.574585
		c-0.6790771-0.3133545-0.9924316,0.62677-1.9848633,6.1633301c-1.3579712,7.7825317-1.828064,16.1918335-1.25354,22.1984253
		l0.4178467,4.3352051l4.5441895,1.1491089c2.5593262,0.62677,5.2231445,1.6192017,6.0065918,2.1937256
		c3.1861572,2.3504028,5.484314,9.0360718,5.484314,15.9828491v4.0218506l3.4472656,0.3133545
		c1.9326172,0.1567383,11.595459,1.201355,21.5194092,2.3504639c9.9240112,1.1491089,24.1309814,2.6637573,31.6000977,3.3950195
		c7.469101,0.7312622,20.0569305,2.0370483,27.9438934,2.8727417s16.7141113,1.7758789,19.5346069,2.0892944
		c6.9467773,0.7312012,23.2952271,0.6789551,27.1604004-0.0522461c7.6780396-1.4102783,12.1177368-4.3352661,13.6324463-8.8793945
		c1.828064-5.3798218,2.4026489-10.6552124,2.7160034-24.496582c0.4700928-20.7359619-0.7834473-33.2192383-5.0142212-49.7244263
		C338.1886292,391.0919189,336.3605042,384.8763428,335.2113953,381.7424316z M187.9184418,407.5970459
		c3.3950195,0,4.6485596-0.5745239,8.2525635-3.9173584c1.7236328-1.5669556,3.3950806-2.8727417,3.656189-2.8727417
		c2.2459717,0-0.1044312,5.4321289-3.4995117,8.2526245c-2.2981567,1.8803101-2.3504028,1.9848022-2.0369873,4.3874512
		c0.4700317,4.282959,3.0294189,8.0436401,6.2155151,9.2449951c2.2459717,0.8878784,6.5289307,0.6790161,8.2525635-0.3134155
		c2.3504639-1.4102783,3.2384033-3.9173584,3.5518188-10.1851807c0.2611084-4.1262207,0.5222778-5.7976685,1.1490479-6.4244385
		c0.7834473-0.7835083,0.9401855-0.7312622,2.1415405,0.6790161c1.6713867,1.9847412,2.7682495,7.0512085,2.3504028,10.8641357
		l-0.3134155,2.9249878l2.7160645-0.3134155c1.5146484-0.2089233,4.6485596-1.3057251,6.9989624-2.4025879
		c4.6726685-2.180603,9.5440063-6.6533203,11.0063477-11.7140503c1.8671265-6.4616089,1.868042-13.4545288-0.0109863-19.9135742
		c-0.7780151-2.6741943-1.1587524-5.5903931-1.8025513-8.3295898c-1.6150513-6.8710327-3.3874512-13.7353516-4.6674805-20.6798706
		c-0.6456299-3.5026855-1.0089722-7.1019287-1.2592163-10.6543579c-0.3377075-4.7938843-0.0810547-9.7240601,0.8878174-14.4329224
		c0.3278198-1.5933228,0.6109009-3.289856,1.5603638-4.6534424c0.6029053-0.8659058,1.0220947-1.2073975,1.2900391-0.1520386
		c0.6985474,2.7514648,0.6885986,5.8170776,0.8826904,8.6307373c0.7834473,12.0132446,1.3057861,15.0426636,6.0588379,33.9505005
		c4.5963745,18.0198975,5.2232056,21.9894409,4.90979,29.8242188c-0.3134155,6.4244385-1.201355,9.4539185-4.0218506,13.6846313
		c-0.8879395,1.3058472-1.6191406,2.5071411-1.6191406,2.6638184c0,0.1044922,0.6789551,0.2089233,1.5147095,0.2089233
		c2.7160034,0,14.3636322,2.1937256,18.3332367,3.4472656c2.1414795,0.6790771,3.9173584,1.1491089,3.9696045,1.0969238
		c0.0522461-0.1044922-0.7835083-8.1481323-2.6115723-23.3475342c-1.7758789-15.4605103-2.0370483-20.5269775-1.3580322-28.9362793
		c1.0968628-14.3637085,4.3352051-24.7577515,10.6030273-34.0027466c2.9771729-4.3874512,5.7454224-7.2601929,8.8793335-9.192749
		c1.5147095-0.9401855,2.8204956-1.7758789,2.9249878-1.8803101c0.1566772-0.1044922-0.2611694-0.6790161-0.8356934-1.3580322
		c-3.65625-3.9696045-25.697937-41.576355-27.055954-46.2249146c-0.1566772-0.6268311-0.62677-1.0969238-0.9401855-1.0969238
		c-0.3656006,0.0522461-2.4026489,0.3134155-4.5441284,0.5223389c-4.9619751,0.574585-32.1223755,0.7834473-34.263855,0.2611694
		l-1.6192017-0.3656616l-0.3656616,3.8129272c-0.9401245,10.1851807-4.5963745,22.5640869-10.8641357,36.718811
		c-4.3874512,9.9761963-8.6182251,21.8327637-10.394043,29.3018799c-2.1415405,9.0360718-2.1937866,21.7283325-0.1567383,29.6152954
		c0.4178467,1.7236328,0.6790161,3.7084961,0.5222778,4.3352051c-0.3133545,1.1491089-0.5222778,1.2536011-4.3873901,1.1491089
		c-3.3950806-0.0521851-4.4396973,0.1044922-6.2678223,1.1491089c-4.5441284,2.5593262-6.4244385,7.8347168-5.0664673,14.3114624
		c0.8356934,3.9696045,1.3057861,5.0142212,3.8129272,8.0958862
		C182.9041595,406.447998,184.9412079,407.5970459,187.9184418,407.5970459z M436.8539734,179.7630157
		c-2.5593262-5.484314-7.7824707-9.5061035-14.4158936-11.0730591c-0.8322754-0.1965942-1.6603394-0.411438-2.4921265-0.6104126
		c-0.7793579-0.1864624-1.5390625-0.3569336-2.3457642-0.2171021c-0.1223755,0.0212402-0.2583008,0.0587769-0.3184204,0.1674805
		c-0.0510254,0.0924072-0.0284424,0.2116699,0.0297852,0.2997437c0.0582886,0.0880127,0.1465454,0.151123,0.2340698,0.2102051
		c0.6867065,0.4631958,1.427124,0.7626953,2.2190552,0.9880981c2.529541,0.7200317,4.8490601,2.2810059,6.7900391,4.0176392
		c2.1079712,1.8860474,3.901123,4.1419678,5.2659302,6.6192627c1.2846069,2.3318481,2.2233276,4.9198608,2.4217529,7.5895996
		c0.3134155,4.5441284-0.8356934,7.939209-4.1262817,12.2744141c-1.4102173,1.8803711-2.5593262,3.4995117-2.5593262,3.656189
		c0,0.1044922,0.7312622-0.1566772,1.6192017-0.62677c2.8204956-1.4102173,6.1633301-4.909729,7.6257935-7.9914551
		c1.25354-2.5593262,1.4624634-5.2753296,1.4624634-7.6257935
		C438.2642517,185.0906525,438.0553284,182.322403,436.8539734,179.7630157z M399.5606995,123.405159
		c9.0360107,12.5878372,12.5877686,31.2345047,9.4538574,49.4110794
		c-2.7160034,15.3560791-10.8641357,27.3693237-24.9666748,36.6665649
		c-10.2896118,6.7901001-27.1081543,13.6846313-41.8374634,17.131958c-5.3275757,1.25354-26.1157837,5.0142212-33.1669922,6.0065918
		c-8.8793945,1.25354-24.1832886,0.4700928-32.5925293-1.6192017
		c-19.6912842-4.9619751-32.6446991-14.4158936-46.4860687-33.7937622l-3.4473267-4.8575439l1.6192017-2.2981567
		c2.6638184-3.7606812,0.8879395-5.2232056-3.081665-2.5071411c-2.4026489,1.6191406-4.282959,3.8129272-5.5887451,6.2677612
		c-1.6713867,3.2905884-0.7312622,4.8052979,1.9325562,3.02948c1.1491089-0.7312622,1.2012939-0.6268311,3.1339111,3.0294189
		c6.2155151,12.0132446,20.7359009,25.6456299,33.5326385,31.4433594
		c5.2231445,2.4026489,13.8936157,5.2753906,18.2288208,6.0588989l3.4995117,0.6789551l-4.0740967,1.3580322
		c-6.737854,2.2459717-11.5431519,5.0664673-15.6171875,9.140564c-4.2830048,4.2307129-5.8499603,7.6257782-6.3200531,13.63237
		l-0.3133545,3.7606812l-7.8870239,0.3656616c-4.3352051,0.1566772-10.7074585,0.5745239-14.1547241,0.8356934
		c-3.4472656,0.2089233-8.565979,0.4700928-11.3342285,0.4700928H214.97435v-1.7758789
		c0-2.5593262-1.8803101-8.2526245-4.282959-13.1100922c-7.2079468-14.4159546-18.7510986-21.7805786-37.6067505-23.869873
		c-3.1339111-0.3656006-5.6409912-0.7834473-5.6409912-0.9923706s0.7312622-2.3504639,1.6191406-4.7530518
		c3.4473267-9.3494873,5.1709595-19.8480225,5.1709595-31.4434204c0-15.6694946-4.7008667-42.203125-9.7150269-54.8431396
		c-3.1861572-8.0436401-3.65625-7.6780396-2.8205566,2.6638184c0.3134155,4.2307739,1.5147705,13.9458008,2.6115723,21.5716553
		c2.6638184,18.5944214,3.3428345,26.4291382,2.9772339,35.2562866c-0.3656616,8.4092407-1.3057861,14.1025391-3.5517578,21.2582397
		c-5.3276367,16.8707886-15.4083252,26.7425537-31.3389282,30.8166504
		c-3.5517578,0.8878784-5.4320679,1.0446167-10.8641968,0.8356934c-5.6932373-0.2089844-7.2601318-0.4701538-11.5431519-1.9326172
		c-12.5355835-4.282959-25.2278442-13.8413696-34.4205933-26.0112915
		c-5.3798828-7.1034546-11.020874-20.6314697-12.9534302-30.9733276c-0.7312012-3.9173584-0.8879395-7.6257935-0.8879395-17.4975586
		c0-11.1775513,0.1567383-13.3712769,1.4102783-20.2658081c1.5147095-8.56604,4.8574829-22.1984253,6.7901001-27.7872391
		c3.1338501-9.0360107,12.1176758-27.5782471,18.7510986-38.6513672
		c11.2297974-18.5944214,26.2202759-35.9353027,38.546875-44.5012817
		c18.960083-13.1623535,32.9058838-18.333252,54.5820313-20.161377c6.2677612-0.5222778,22.8773804-0.3133545,27.526001,0.4178467
		c7.939209,1.201355,15.1471558,4.0740967,26.0112915,10.4463501c8.9315796,5.1708984,13.7369385,9.0360718,29.0407562,22.9296265
		c13.2667847,12.1177368,22.3028564,18.5944214,33.637146,24.1832275
		c10.8118896,5.3798218,19.0122681,7.7302856,32.1746216,9.2972412
		c26.5336304,3.1338501,34.1594238,5.2231445,46.0159912,12.3265991
		C385.3536682,106.5866165,392.0915833,113.0633011,399.5606995,123.405159z M155.6915741,170.8314362
		c-2.1937866-14.7293091-11.1253662-35.9353027-20.2658691-48.3664017
		c-5.9021606-7.9914551-13.9458008-15.4083252-20.4225464-18.8034058c-3.3950806-1.828064-4.3352051-1.9325562-5.9021606-0.8356934
		c-0.5745239,0.4178467-1.3580322,1.828125-1.6714478,3.1861572c-0.7834473,3.1338501-1.1490479,12.3788452-0.626709,15.1994019
		c0.2611694,1.25354,0.3133545,2.2459106,0.1044312,2.1936646c-0.1566772,0-1.7758789-1.7236328-3.6039429-3.8651123
		c-1.7759399-2.0892334-3.7084961-3.9173584-4.28302-4.0740356c-1.5147095-0.4179077-4.1785278,1.6191406-6.4244995,4.8574829
		c-8.6181641,12.483345-16.0872803,39.5915604-16.0872803,58.2382278c0,11.1253052,1.0446167,17.0274658,4.4918823,25.6456909
		c2.9249878,7.2079468,5.6932373,11.4909058,10.7074585,16.505188c3.8129272,3.7606201,5.3276367,4.909729,9.4539185,6.8422852
		c2.7160645,1.3057861,6.4244995,2.7683105,8.3048096,3.2905884c4.2307739,1.0969238,11.9610596,1.0969238,17.131958,0
		c12.5355835-2.6637573,24.6010742-15.1471558,27.9439087-29.0407104
		C156.5795135,193.4999542,157.1017914,179.9720001,155.6915741,170.8314362z M272.8468933,114.7347488
		c-0.1566772-4.0740356-0.2611694-4.5441895-1.6191406-5.6932373c-1.828125-1.5669556-3.081665-1.5669556-4.90979,0
		c-0.9299316,0.7970581-1.4730835,1.954895-1.4916382,3.1795044l-0.1275024,8.4158936
		c-0.1044922,5.6932373-0.0522461,11.0730667,0.1566772,12.0132523c0.4178467,2.2459717,1.5147095,3.3428345,3.4472656,3.3428345
		c1.3580322,0,1.7236328-0.3134155,2.6115723-2.3504028C272.1156921,130.8742828,273.1603088,121.2636795,272.8468933,114.7347488z"
		/>
</g>
</svg>
